<svg width="120" height="51" viewBox="0 0 120 51" fill="none" xmlns="http://www.w3.org/2000/svg">
<path d="M0.8 21V19.15C1.27333 18.7567 1.81667 18.3 2.43 17.78C3.04333 17.2533 3.66667 16.6967 4.3 16.11C4.93333 15.5167 5.51667 14.9267 6.05 14.34C6.58333 13.7467 7.01333 13.1867 7.34 12.66C7.67333 12.1267 7.84 11.6633 7.84 11.27C7.84 10.8233 7.73 10.4167 7.51 10.05C7.29667 9.67667 7.00667 9.38 6.64 9.16C6.27333 8.93333 5.86667 8.82 5.42 8.82C4.97333 8.82 4.56333 8.93333 4.19 9.16C3.82333 9.38 3.52667 9.67667 3.3 10.05C3.08 10.4167 2.97 10.8233 2.97 11.27H0.89C0.89 10.4233 1.09667 9.66 1.51 8.98C1.93 8.29333 2.48 7.75 3.16 7.35C3.84667 6.94333 4.6 6.74 5.42 6.74C6.24667 6.74 7 6.94333 7.68 7.35C8.36 7.75667 8.90333 8.30333 9.31 8.99C9.71667 9.67 9.92 10.43 9.92 11.27C9.92 11.7367 9.82333 12.2167 9.63 12.71C9.43667 13.2033 9.16667 13.7067 8.82 14.22C8.48 14.7333 8.08333 15.2533 7.63 15.78C7.17667 16.3067 6.69 16.8333 6.17 17.36C5.65 17.8867 5.12 18.4067 4.58 18.92H10.04V21H0.8ZM18.1605 7L14.1105 22.12H12.0305L16.0805 7H18.1605ZM24.3548 21.26C23.4615 21.26 22.6448 21.04 21.9048 20.6C21.1648 20.1533 20.5715 19.56 20.1248 18.82C19.6848 18.0733 19.4648 17.25 19.4648 16.35C19.4648 15.87 19.5215 15.4367 19.6348 15.05C19.7482 14.6633 19.9215 14.2567 20.1548 13.83L24.0948 7H26.5148L23.7848 11.72C24.3382 11.6133 24.8782 11.61 25.4048 11.71C25.9382 11.8033 26.4382 11.9867 26.9048 12.26C27.3715 12.5267 27.7815 12.8667 28.1348 13.28C28.4948 13.6867 28.7748 14.15 28.9748 14.67C29.1748 15.19 29.2748 15.75 29.2748 16.35C29.2748 17.0233 29.1448 17.6567 28.8848 18.25C28.6315 18.8433 28.2782 19.3667 27.8248 19.82C27.3782 20.2667 26.8548 20.62 26.2548 20.88C25.6615 21.1333 25.0282 21.26 24.3548 21.26ZM24.3548 19.18C24.9015 19.18 25.3882 19.0467 25.8148 18.78C26.2415 18.5133 26.5782 18.1633 26.8248 17.73C27.0715 17.2967 27.1948 16.8367 27.1948 16.35C27.1948 15.8367 27.0682 15.3667 26.8148 14.94C26.5682 14.5133 26.2315 14.1733 25.8048 13.92C25.3782 13.66 24.9015 13.53 24.3748 13.53C23.8282 13.53 23.3415 13.6633 22.9148 13.93C22.4882 14.1967 22.1515 14.5433 21.9048 14.97C21.6648 15.3967 21.5448 15.8567 21.5448 16.35C21.5448 16.89 21.6748 17.3733 21.9348 17.8C22.2015 18.2267 22.5482 18.5633 22.9748 18.81C23.4015 19.0567 23.8615 19.18 24.3548 19.18ZM35.8875 21V7H40.7075C41.4608 7 42.1408 7.18667 42.7475 7.56C43.3608 7.93333 43.8475 8.43667 44.2075 9.07C44.5742 9.70333 44.7575 10.4033 44.7575 11.17C44.7575 11.95 44.5708 12.6567 44.1975 13.29C43.8308 13.9167 43.3408 14.4167 42.7275 14.79C42.1142 15.1633 41.4408 15.35 40.7075 15.35H37.9675V21H35.8875ZM37.9675 13.27H40.4975C40.8975 13.27 41.2608 13.17 41.5875 12.97C41.9208 12.77 42.1842 12.5033 42.3775 12.17C42.5775 11.8367 42.6775 11.46 42.6775 11.04C42.6775 10.62 42.5775 10.2433 42.3775 9.91C42.1842 9.57 41.9208 9.30333 41.5875 9.11C41.2608 8.91 40.8975 8.81 40.4975 8.81H37.9675V13.27ZM50.3656 21.26C49.4456 21.26 48.6056 21.0233 47.8456 20.55C47.0923 20.0767 46.489 19.4433 46.0356 18.65C45.589 17.85 45.3656 16.9667 45.3656 16C45.3656 15.2667 45.4956 14.5833 45.7556 13.95C46.0156 13.31 46.3723 12.75 46.8256 12.27C47.2856 11.7833 47.819 11.4033 48.4256 11.13C49.0323 10.8567 49.679 10.72 50.3656 10.72C51.1323 10.72 51.8356 10.88 52.4756 11.2C53.1156 11.5133 53.6623 11.95 54.1156 12.51C54.569 13.0633 54.9023 13.7033 55.1156 14.43C55.329 15.15 55.3923 15.9167 55.3056 16.73H47.5956C47.6823 17.19 47.849 17.6067 48.0956 17.98C48.349 18.3467 48.669 18.6367 49.0556 18.85C49.449 19.0633 49.8856 19.1733 50.3656 19.18C50.8723 19.18 51.3323 19.0533 51.7456 18.8C52.1656 18.5467 52.509 18.1967 52.7756 17.75L54.8856 18.24C54.4856 19.1267 53.8823 19.8533 53.0756 20.42C52.269 20.98 51.3656 21.26 50.3656 21.26ZM47.5256 15.14H53.2056C53.139 14.66 52.969 14.2267 52.6956 13.84C52.429 13.4467 52.0923 13.1367 51.6856 12.91C51.2856 12.6767 50.8456 12.56 50.3656 12.56C49.8923 12.56 49.4523 12.6733 49.0456 12.9C48.6456 13.1267 48.3123 13.4367 48.0456 13.83C47.7856 14.2167 47.6123 14.6533 47.5256 15.14ZM61.3617 21.26C60.4417 21.26 59.6017 21.0233 58.8417 20.55C58.0884 20.0767 57.4851 19.4433 57.0317 18.65C56.5851 17.85 56.3617 16.9667 56.3617 16C56.3617 15.2667 56.4917 14.5833 56.7517 13.95C57.0117 13.31 57.3684 12.75 57.8217 12.27C58.2817 11.7833 58.8151 11.4033 59.4217 11.13C60.0284 10.8567 60.6751 10.72 61.3617 10.72C62.2817 10.72 63.1184 10.9567 63.8717 11.43C64.6317 11.9033 65.2351 12.54 65.6817 13.34C66.1351 14.14 66.3617 15.0267 66.3617 16C66.3617 16.7267 66.2317 17.4067 65.9717 18.04C65.7117 18.6733 65.3517 19.2333 64.8917 19.72C64.4384 20.2 63.9084 20.5767 63.3017 20.85C62.7017 21.1233 62.0551 21.26 61.3617 21.26ZM61.3617 19.18C61.9151 19.18 62.4117 19.0333 62.8517 18.74C63.2917 18.4467 63.6384 18.06 63.8917 17.58C64.1517 17.0933 64.2817 16.5667 64.2817 16C64.2817 15.42 64.1484 14.8867 63.8817 14.4C63.6217 13.9133 63.2717 13.5267 62.8317 13.24C62.3917 12.9467 61.9017 12.8 61.3617 12.8C60.8151 12.8 60.3184 12.9467 59.8717 13.24C59.4317 13.5333 59.0817 13.9233 58.8217 14.41C58.5684 14.8967 58.4417 15.4267 58.4417 16C58.4417 16.5933 58.5751 17.13 58.8417 17.61C59.1084 18.09 59.4617 18.4733 59.9017 18.76C60.3484 19.04 60.8351 19.18 61.3617 19.18ZM70.0573 26H67.9773V11H70.0573V12.47C70.3907 11.9567 70.8173 11.54 71.3373 11.22C71.8573 10.9 72.4707 10.74 73.1773 10.74C73.904 10.74 74.584 10.8767 75.2173 11.15C75.8573 11.4233 76.4173 11.8033 76.8973 12.29C77.3773 12.77 77.754 13.3267 78.0273 13.96C78.3007 14.5933 78.4373 15.2733 78.4373 16C78.4373 16.7267 78.3007 17.41 78.0273 18.05C77.754 18.69 77.3773 19.2533 76.8973 19.74C76.4173 20.22 75.8573 20.5967 75.2173 20.87C74.584 21.1433 73.904 21.28 73.1773 21.28C72.4707 21.28 71.8573 21.12 71.3373 20.8C70.8173 20.4733 70.3907 20.0567 70.0573 19.55V26ZM73.1573 12.75C72.5773 12.75 72.0673 12.8967 71.6273 13.19C71.1873 13.4833 70.844 13.8767 70.5973 14.37C70.3507 14.8567 70.2273 15.4 70.2273 16C70.2273 16.6 70.3507 17.1467 70.5973 17.64C70.844 18.1333 71.1873 18.5267 71.6273 18.82C72.0673 19.1133 72.5773 19.26 73.1573 19.26C73.7307 19.26 74.2573 19.1167 74.7373 18.83C75.2173 18.5367 75.6007 18.1433 75.8873 17.65C76.174 17.1567 76.3173 16.6067 76.3173 16C76.3173 15.4067 76.174 14.8633 75.8873 14.37C75.6073 13.8767 75.2273 13.4833 74.7473 13.19C74.2673 12.8967 73.7373 12.75 73.1573 12.75ZM80.3239 21V6H82.3939V21H80.3239ZM89.3109 21.26C88.3909 21.26 87.5509 21.0233 86.7909 20.55C86.0376 20.0767 85.4343 19.4433 84.9809 18.65C84.5343 17.85 84.3109 16.9667 84.3109 16C84.3109 15.2667 84.4409 14.5833 84.7009 13.95C84.9609 13.31 85.3176 12.75 85.7709 12.27C86.2309 11.7833 86.7643 11.4033 87.3709 11.13C87.9776 10.8567 88.6243 10.72 89.3109 10.72C90.0776 10.72 90.7809 10.88 91.4209 11.2C92.0609 11.5133 92.6076 11.95 93.0609 12.51C93.5143 13.0633 93.8476 13.7033 94.0609 14.43C94.2743 15.15 94.3376 15.9167 94.2509 16.73H86.5409C86.6276 17.19 86.7943 17.6067 87.0409 17.98C87.2943 18.3467 87.6143 18.6367 88.0009 18.85C88.3943 19.0633 88.8309 19.1733 89.3109 19.18C89.8176 19.18 90.2776 19.0533 90.6909 18.8C91.1109 18.5467 91.4543 18.1967 91.7209 17.75L93.8309 18.24C93.4309 19.1267 92.8276 19.8533 92.0209 20.42C91.2143 20.98 90.3109 21.26 89.3109 21.26ZM86.4709 15.14H92.1509C92.0843 14.66 91.9143 14.2267 91.6409 13.84C91.3743 13.4467 91.0376 13.1367 90.6309 12.91C90.2309 12.6767 89.7909 12.56 89.3109 12.56C88.8376 12.56 88.3976 12.6733 87.9909 12.9C87.5909 13.1267 87.2576 13.4367 86.9909 13.83C86.7309 14.2167 86.5576 14.6533 86.4709 15.14Z" fill="#C99E71"/>
<rect opacity="0.1" y="47" width="120" height="4" rx="2" fill="white"/>
<rect y="47" width="50" height="4" rx="2" fill="#C99E71"/>
</svg>
